<?xml version="1.0" encoding="utf-8"?>
<svg viewBox="0 0 347 347" fill="none" stroke="#000" stroke-width="2" xmlns="http://www.w3.org/2000/svg">
  <rect width="337" height="337" x="5" y="5" transform="matrix(1, 0, 0, 1, 3.552713678800501e-15, 3.552713678800501e-15)"/>
  <circle cx="298" cy="40" r="16" transform="matrix(1, 0, 0, 1, 3.552713678800501e-15, 3.552713678800501e-15)"/>
  <rect x="9.525" y="11.266" width="153.63" height="50.391" style="fill: rgb(216, 216, 216); stroke: rgb(0, 0, 0); stroke-width: 1px;" transform="matrix(1, 0, 0, 1, 3.552713678800501e-15, 3.552713678800501e-15)"/>
  <rect x="287.392" y="126.796" width="43.836" height="93.408" style="fill: rgb(216, 216, 216); stroke: rgb(0, 0, 0); stroke-width: 1px;" transform="matrix(1, 0, 0, 1, 3.552713678800501e-15, 3.552713678800501e-15)"/>
  <rect x="9.184" y="72.377" width="66.3" height="66.3" style="fill: rgb(216, 216, 216); stroke: rgb(0, 0, 0); stroke-width: 1px;" transform="matrix(1, 0, 0, 1, 3.552713678800501e-15, 3.552713678800501e-15)"/>
  <rect x="75.5" y="72.4" width="66.3" height="66.3" style="fill: rgb(216, 216, 216); stroke: rgb(0, 0, 0); stroke-width: 1px;" transform="matrix(1, 0, 0, 1, 3.552713678800501e-15, 3.552713678800501e-15)"/>
  <rect x="141.8" y="72.4" width="66.3" height="66.3" style="fill: rgb(216, 216, 216); stroke: rgb(0, 0, 0); stroke-width: 1px;" transform="matrix(1, 0, 0, 1, 3.552713678800501e-15, 3.552713678800501e-15)"/>
  <rect x="208.116" y="72.4" width="66.3" height="66.3" style="fill: rgb(216, 216, 216); stroke: rgb(0, 0, 0); stroke-width: 1px;" transform="matrix(1, 0, 0, 1, 3.552713678800501e-15, 3.552713678800501e-15)"/>
  <rect x="9.2" y="138.7" width="66.3" height="66.3" style="fill: rgb(216, 216, 216); stroke: rgb(0, 0, 0); stroke-width: 1px;" transform="matrix(1, 0, 0, 1, 3.552713678800501e-15, 3.552713678800501e-15)"/>
  <rect x="75.516" y="138.723" width="66.3" height="66.3" style="fill: rgb(216, 216, 216); stroke: rgb(0, 0, 0); stroke-width: 1px;" transform="matrix(1, 0, 0, 1, 3.552713678800501e-15, 3.552713678800501e-15)"/>
  <rect x="141.816" y="138.723" width="66.3" height="66.3" style="fill: rgb(216, 216, 216); stroke: rgb(0, 0, 0); stroke-width: 1px;" transform="matrix(1, 0, 0, 1, 3.552713678800501e-15, 3.552713678800501e-15)"/>
  <rect x="208.132" y="138.723" width="66.3" height="66.3" style="fill: rgb(216, 216, 216); stroke: rgb(0, 0, 0); stroke-width: 1px;" transform="matrix(1, 0, 0, 1, 3.552713678800501e-15, 3.552713678800501e-15)"/>
  <rect x="9.2" y="205" width="66.3" height="66.3" style="fill: rgb(216, 216, 216); stroke: rgb(0, 0, 0); stroke-width: 1px;" transform="matrix(1, 0, 0, 1, 3.552713678800501e-15, 3.552713678800501e-15)"/>
  <rect x="75.516" y="205.023" width="66.3" height="66.3" style="fill: rgb(216, 216, 216); stroke: rgb(0, 0, 0); stroke-width: 1px;" transform="matrix(1, 0, 0, 1, 3.552713678800501e-15, 3.552713678800501e-15)"/>
  <rect x="141.816" y="205.023" width="66.3" height="66.3" style="fill: rgb(216, 216, 216); stroke: rgb(0, 0, 0); stroke-width: 1px;" transform="matrix(1, 0, 0, 1, 3.552713678800501e-15, 3.552713678800501e-15)"/>
  <rect x="208.132" y="205.023" width="66.3" height="66.3" style="fill: rgb(216, 216, 216); stroke: rgb(0, 0, 0); stroke-width: 1px;" transform="matrix(1, 0, 0, 1, 3.552713678800501e-15, 3.552713678800501e-15)"/>
  <rect x="9.216" y="271.323" width="66.3" height="66.3" style="fill: rgb(216, 216, 216); stroke: rgb(0, 0, 0); stroke-width: 1px;" transform="matrix(1, 0, 0, 1, 3.552713678800501e-15, 3.552713678800501e-15)"/>
  <rect x="75.532" y="271.346" width="66.3" height="66.3" style="fill: rgb(216, 216, 216); stroke: rgb(0, 0, 0); stroke-width: 1px;" transform="matrix(1, 0, 0, 1, 3.552713678800501e-15, 3.552713678800501e-15)"/>
  <rect x="141.832" y="271.346" width="66.3" height="66.3" style="fill: rgb(216, 216, 216); stroke: rgb(0, 0, 0); stroke-width: 1px;" transform="matrix(1, 0, 0, 1, 3.552713678800501e-15, 3.552713678800501e-15)"/>
  <rect x="208.148" y="271.346" width="66.3" height="66.3" style="fill: rgb(216, 216, 216); stroke: rgb(0, 0, 0); stroke-width: 1px;" transform="matrix(1, 0, 0, 1, 3.552713678800501e-15, 3.552713678800501e-15)"/>
  <text style="white-space: pre; fill: rgb(51, 51, 51); font-family: Arial, sans-serif; font-size: 25.9px; transform-origin: 560.296px 311.299px;" x="525.748" y="320.312" transform="matrix(0, 1, -1, 0, -250.553823753583, -136.607732796734)">XXXX</text>
</svg>